<?xml version="1.0" encoding="UTF-8" standalone="no"?>
<!-- Created with Inkscape (http://www.inkscape.org/) -->

<svg
   xmlns:dc="http://purl.org/dc/elements/1.1/"
   xmlns:cc="http://creativecommons.org/ns#"
   xmlns:rdf="http://www.w3.org/1999/02/22-rdf-syntax-ns#"
   xmlns:svg="http://www.w3.org/2000/svg"
   xmlns="http://www.w3.org/2000/svg"
   xmlns:sodipodi="http://sodipodi.sourceforge.net/DTD/sodipodi-0.dtd"
   xmlns:inkscape="http://www.inkscape.org/namespaces/inkscape"
   width="210mm"
   height="297mm"
   viewBox="0 0 210 297"
   version="1.1"
   id="svg8"
   inkscape:version="0.92.2 (5c3e80d, 2017-08-06)"
   sodipodi:docname="reply_icon.svg"
   inkscape:export-filename="/home/vee/รูปภาพ/reply_icon.svg.png"
   inkscape:export-xdpi="96"
   inkscape:export-ydpi="96">
  <defs
     id="defs2" />
  <sodipodi:namedview
     id="base"
     pagecolor="#ffffff"
     bordercolor="#666666"
     borderopacity="1.0"
     inkscape:pageopacity="0.0"
     inkscape:pageshadow="2"
     inkscape:zoom="1"
     inkscape:cx="309.17947"
     inkscape:cy="560"
     inkscape:document-units="mm"
     inkscape:current-layer="layer1"
     showgrid="false"
     inkscape:window-width="1920"
     inkscape:window-height="1003"
     inkscape:window-x="0"
     inkscape:window-y="34"
     inkscape:window-maximized="1" />
  <metadata
     id="metadata5">
    <rdf:RDF>
      <cc:Work
         rdf:about="">
        <dc:format>image/svg+xml</dc:format>
        <dc:type
           rdf:resource="http://purl.org/dc/dcmitype/StillImage" />
        <dc:title></dc:title>
      </cc:Work>
    </rdf:RDF>
  </metadata>
  <g
     inkscape:label="Layer 1"
     inkscape:groupmode="layer"
     id="layer1">
    <ellipse
       id="path3699"
       cx="54.636456"
       cy="116.81876"
       rx="14.684375"
       ry="14.022917"
       style="stroke-width:0.26458332;fill:#5f7dac;fill-opacity:0.89583331" />
    <ellipse
       id="path3701"
       cx="67.865631"
       cy="122.50728"
       rx="13.096875"
       ry="13.096874"
       style="stroke-width:0.26458332;fill:#5f7d31;fill-opacity:0.54583335" />
    <path
       style="fill:none;stroke:#006d00;stroke-width:0.265;stroke-linecap:butt;stroke-linejoin:miter;stroke-opacity:0;stroke-miterlimit:4;stroke-dasharray:none"
       d="m 43.391666,119.2 c -4.7625,13.22917 -4.7625,13.22917 -4.7625,13.22917 l 11.90625,-2.38125 z"
       id="path3707"
       inkscape:connector-curvature="0" />
    <path
       style="fill:none;stroke:#000000;stroke-width:0.26458332px;stroke-linecap:butt;stroke-linejoin:miter;stroke-opacity:0"
       d="M 79.110416,128.46041 C 80.9625,138.51458 80.9625,138.51458 80.9625,138.51458 L 70.379166,134.81041 Z"
       id="path3709"
       inkscape:connector-curvature="0" />
    <path
       d="m 147.89709,498.14305 c 6.10446,-17.1614 10.15232,-28.22677 10.46775,-28.61503 0.2197,-0.27042 0.87151,0.40458 1.44847,1.5 2.13987,4.06276 13.61199,14.09409 19.67629,17.20514 5.40107,2.7708 5.94442,3.28947 3.94432,3.76523 -13.24341,3.15015 -35.86288,7.06128 -35.53683,6.14466 z"
       id="path3711"
       inkscape:connector-curvature="0"
       transform="scale(0.26458333)"
       style="fill:#5f7dab;fill-opacity:0.89803922" />
    <path
       d="m 287.86429,516.23558 c -7.8375,-2.79557 -14.25,-5.41538 -14.25,-5.82182 0,-0.40643 1.4625,-1.2276 3.25,-1.82481 4.49137,-1.50058 14.50739,-9.19826 18.44793,-14.17791 2.15895,-2.72827 3.43243,-3.66789 3.74449,-2.76284 0.26008,0.75432 1.42227,6.77149 2.58263,13.37149 1.16035,6.6 2.35319,13.0125 2.65075,14.25 0.72455,3.01331 0.31779,2.93817 -16.4258,-3.03411 z"
       id="path3713"
       inkscape:connector-curvature="0"
       transform="scale(0.26458333)"
       style="stroke:#5f7d30;stroke-opacity:0.55833334;fill:#5f7d31;fill-opacity:0.54166669;stroke-width:0;stroke-miterlimit:4;stroke-dasharray:none" />
  </g>
</svg>
